<svg id="visual" viewBox="0 0 960 540" width="960" height="540" xmlns="http://www.w3.org/2000/svg" xmlns:xlink="http://www.w3.org/1999/xlink" version="1.1"><rect x="0" y="0" width="960" height="540" fill="#001220"></rect><defs><linearGradient id="grad1_0" x1="43.8%" y1="0%" x2="100%" y2="100%"><stop offset="14.444444444444446%" stop-color="#001220" stop-opacity="1"></stop><stop offset="85.55555555555554%" stop-color="#001220" stop-opacity="1"></stop></linearGradient></defs><defs><linearGradient id="grad2_0" x1="0%" y1="0%" x2="56.3%" y2="100%"><stop offset="14.444444444444446%" stop-color="#001220" stop-opacity="1"></stop><stop offset="85.55555555555554%" stop-color="#001220" stop-opacity="1"></stop></linearGradient></defs><g transform="translate(960, 0)"><path d="M0 463C-66.1 459.9 -132.2 456.8 -174.9 422.2C-217.6 387.6 -236.8 321.5 -279.3 279.3C-321.8 237.1 -387.6 219 -425.9 176.4C-464.2 133.9 -475.1 66.9 -486 0L0 0Z" fill="#1EB5AD"></path></g><g transform="translate(0, 540)"><path d="M0 -413C67.4 -441 134.8 -469.1 186 -449C237.2 -428.9 272.2 -360.7 306.9 -306.9C341.6 -253.1 376.1 -213.7 398.2 -164.9C420.3 -116.2 430.2 -58.1 440 0L0 0Z" fill="#1EB5AD"></path></g></svg>